# xmcd
#
# Track frame offsets:
#	150
#	19378
#	31874
#	46238
#	59432
#	75599
#	92234
#	106498
#	123070
#	137866
#	154325
#
# Disc length: 2269 seconds
#
# Revision: 1
# Processed by: cddbd v1.5.2PL0 Copyright (c) Steve Scherf et al.
# Submitted via: audiograbber 1.83.01
#
DISCID=8c08db0b
DTITLE=Unit Five - Sushi and Golf
DYEAR=1900
DGENRE=
TTITLE0=Rakel
TTITLE1=Sushi and Golf
TTITLE2=Ditt lys i livet
TTITLE3=Katarina
TTITLE4=Tilgir aldri
TTITLE5=Sahara 08
TTITLE6=Dyrker min depresjon
TTITLE7=Kor blei dem av?
TTITLE8=Gave 08
TTITLE9=Sommer'n har aldri vært finere
TTITLE10=Tøffere på engelsk
EXTD=
EXTT0=
EXTT1=
EXTT2=
EXTT3=
EXTT4=
EXTT5=
EXTT6=
EXTT7=
EXTT8=
EXTT9=
EXTT10=
PLAYORDER=
